<svg xmlns="http://www.w3.org/2000/svg" version="1.1" xmlns:xlink="http://www.w3.org/1999/xlink" width="1000" height="1000"><g clip-path="url(#SvgjsClipPath1087)"><rect width="1000" height="1000" fill="#ffffff"></rect><g transform="matrix(0.9,0,0,0.9,50,50)"><svg xmlns="http://www.w3.org/2000/svg" version="1.1" xmlns:xlink="http://www.w3.org/1999/xlink" width="1000" height="1000"><svg version="1.1" viewBox="0.0 0.0 1000.0 1000.0" fill="none" stroke="none" stroke-linecap="square" stroke-miterlimit="10" xmlns:xlink="http://www.w3.org/1999/xlink" xmlns="http://www.w3.org/2000/svg"><clipPath id="p.0"><path d="m0 0l1000.0 0l0 1000.0l-1000.0 0l0 -1000.0z" clip-rule="nonzero"></path></clipPath><g clip-path="url(#p.0)"><path fill="#000000" fill-opacity="0.0" d="m0 0l1000.0 0l0 1000.0l-1000.0 0z" fill-rule="evenodd"></path><path fill="#170057" d="m45.461845 167.93561l130.80316 0l0 538.3622l-130.80316 0z" fill-rule="evenodd"></path><path fill="#170057" d="m644.66675 700.4173l0 141.51184l-469.95276 0l0 -141.51184z" fill-rule="evenodd"></path><path fill="#170057" d="m176.29558 841.3872l-65.40158 0l0 0c-17.345573 0 -33.98072 -6.890503 -46.245895 -19.15564c-12.265175 -12.265198 -19.155678 -28.90033 -19.155678 -46.24591l0 -76.11023l130.80316 0z" fill-rule="evenodd"></path><path fill="#3f0071" d="m809.2808 16.181103l0 141.51181l-497.63782 0l0 -141.51181z" fill-rule="evenodd"></path><path fill="#3f0071" d="m317.08694 689.0701l-130.80313 0l0 -533.03937l130.80313 0z" fill-rule="evenodd"></path><path fill="#3f0071" d="m186.7814 157.72371l0 -76.11024l0 0c0 -17.345581 6.890503 -33.980724 19.155685 -46.2459c12.265167 -12.265175 28.900314 -19.155678 46.245895 -19.155678l65.40158 0l0 141.51181z" fill-rule="evenodd"></path><path fill="#3f0071" d="m954.5381 981.3333l-130.80316 0l0 -673.4488l130.80316 0z" fill-rule="evenodd"></path><path fill="#3f0071" d="m332.55856 313.74695l0 -141.5118l492.7244 0l0 141.5118z" fill-rule="evenodd"></path><path fill="#3f0071" d="m823.7042 172.77577l65.40161 0l0 0c17.34552 0 33.980713 6.890503 46.24585 19.15567c12.265198 12.2651825 19.1557 28.900314 19.1557 46.245895l0 76.11023l-130.80316 0z" fill-rule="evenodd"></path><path fill="#413c42" d="m663.44354 335.97635l141.51184 0l0 533.0393l-141.51184 0z" fill-rule="evenodd"></path><path fill="#413c42" d="m804.95575 853.01495l0 65.40161l0 0c0 17.345581 -6.890503 33.980713 -19.1557 46.24585c-12.265137 12.265198 -28.90033 19.1557 -46.24591 19.1557l-76.11023 0l0 -130.80316z" fill-rule="evenodd"></path></g></svg></svg></g></g><defs><clipPath id="SvgjsClipPath1087"><rect width="1000" height="1000" x="0" y="0" rx="250" ry="250"></rect></clipPath></defs></svg>